<svg width="16" height="16" viewBox="0 0 16 16" fill="none" xmlns="http://www.w3.org/2000/svg">
<mask id="mask0_507_7933" style="mask-type:alpha" maskUnits="userSpaceOnUse" x="0" y="0" width="16" height="16">
<rect width="16" height="16" fill="#D9D9D9"/>
</mask>
<g mask="url(#mask0_507_7933)">
<path d="M5.98958 8.66732H7.32292V6.83398H8.65625V8.66732H9.98958V5.50065L7.98958 4.16732L5.98958 5.50065V8.66732ZM7.98958 12.9007C9.34514 11.6562 10.3507 10.5257 11.0062 9.50898C11.6618 8.49232 11.9896 7.58954 11.9896 6.80065C11.9896 5.58954 11.6035 4.59787 10.8312 3.82565C10.059 3.05343 9.11181 2.66732 7.98958 2.66732C6.86736 2.66732 5.92014 3.05343 5.14792 3.82565C4.37569 4.59787 3.98958 5.58954 3.98958 6.80065C3.98958 7.58954 4.31736 8.49232 4.97292 9.50898C5.62847 10.5257 6.63403 11.6562 7.98958 12.9007ZM7.98958 14.6673C6.20069 13.1451 4.86458 11.7312 3.98125 10.4257C3.09792 9.1201 2.65625 7.91176 2.65625 6.80065C2.65625 5.13398 3.19236 3.80621 4.26458 2.81732C5.33681 1.82843 6.57847 1.33398 7.98958 1.33398C9.40069 1.33398 10.6424 1.82843 11.7146 2.81732C12.7868 3.80621 13.3229 5.13398 13.3229 6.80065C13.3229 7.91176 12.8812 9.1201 11.9979 10.4257C11.1146 11.7312 9.77847 13.1451 7.98958 14.6673Z" fill="#FF7F50"/>
</g>
</svg>
